<svg xmlns="http://www.w3.org/2000/svg" viewBox="0 0 32 32">
  <defs>
    <linearGradient id="bg" x1="0" y1="0" x2="1" y2="1">
      <stop offset="0%" stop-color="#ffe1ec" />
      <stop offset="100%" stop-color="#ffb6d5" />
    </linearGradient>
    <linearGradient id="hornFav" x1="0" y1="0" x2="0" y2="1">
      <stop offset="0%" stop-color="#fff5b8" />
      <stop offset="55%" stop-color="#ffd23f" />
      <stop offset="100%" stop-color="#ff95c2" />
    </linearGradient>
    <linearGradient id="maneFav" x1="0" y1="0" x2="0" y2="1">
      <stop offset="0%" stop-color="#a8d4ff" />
      <stop offset="60%" stop-color="#ffb6d5" />
      <stop offset="100%" stop-color="#ffe066" />
    </linearGradient>
  </defs>
  <rect width="32" height="32" rx="7" fill="url(#bg)" />
  <path
    d="M 7 18 Q 8 12 13 11 Q 18 10 22 13 Q 25 17 23 23 Q 19 25 14 24 Q 9 23 7 18 Z"
    fill="url(#maneFav)"
    opacity="0.85"
  />
  <path
    d="M 11 14 Q 12 8 17 8 Q 23 9 24 14 Q 25 18 27 19 Q 29 22 26 24 Q 22 25 18 25 Q 13 25 11 22 Q 9 18 11 14 Z"
    fill="#fffaf6"
    stroke="#3a2a3f"
    stroke-width="1.1"
    stroke-linejoin="round"
  />
  <path
    d="M 13.5 9 Q 16 8 18.5 9 L 16 1 Z"
    fill="url(#hornFav)"
    stroke="#f25aa1"
    stroke-width="0.7"
    stroke-linejoin="round"
  />
  <path d="M 14.5 6 Q 16 5.2 17.5 6" stroke="#f25aa1" stroke-width="0.5" fill="none" stroke-linecap="round" />
  <ellipse cx="20" cy="17" rx="1.4" ry="1.8" fill="#3a2a3f" />
  <circle cx="20.4" cy="16.3" r="0.55" fill="#fffaf6" />
  <ellipse cx="24" cy="20" rx="1.5" ry="0.9" fill="#ffb6d5" opacity="0.75" />
  <circle cx="26" cy="14" r="0.6" fill="#3a2a3f" />
</svg>
