<svg
  viewBox="0 0 1024 1024"
  xmlns="http://www.w3.org/2000/svg"
  role="img"
  aria-label="Cute kawaii unicorn"
>
  <path fill="#3a2a3f" d="M296.459 85.777c-7.462-8.733-3.648-9.352-3.026-18.462.374-5.473-4.601-29.127-.414-32.716 6.135.39 14.587 21.241 18.084 25.932 5.104 6.846 9.524 6.182 8.094 17.316 11.41 7.94 13.045 11.91 12.212 25.578 11.189 7.255 13.222 11.82 12.444 24.937 4.928 2.951 6.455 5.194 10.003 9.51 26.775-2.405 53.272-2.857 79.105 5.631 7.148 2.349 13.543 5.622 20.346 8.458 15.757 6.568 29.017 15.196 40.439 27.939 3.517 3.925 6.768 8.42 10.46 12.25 16.198-11.969 30.764-17.895 49.783-24.068 9.06 25.274 13.86 51.913 8.785 78.661 4.8 3.461 9.719 6.746 14.522 10.198 26.386 18.962 42.378 49.104 47.547 80.83a164.6 164.6 0 0 1 .702 48.829c-3.722 28.073-22.242 69.309 4.844 90.555 15.077 11.827 31.791 7.451 46.498-1.656-4.578 22.672-9.947 33.845-29.437 46.809l-1.041.687c25.032-1.643 51.497 4.181 74.146 14.845 14.901-24.568 35.33-40.971 63.598-48.019a111.8 111.8 0 0 1 84.375 12.91 112.17 112.17 0 0 1 50.316 70.359c4.531 19.287 3.933 39.565-.038 58.903-5.889 28.678-32.371 73.535 1.638 94.865a32.95 32.95 0 0 0 24.867 4.276c5.424-1.243 9.112-3.665 13.551-6.819-2.528 31.375-15.766 58.828-41.988 77.178-38.18 26.72-93.412 21.412-124.376-14.376 1.848 8.227 3.923 17.138 4.857 25.507 4.521 40.51-2.482 82.026-17.811 119.667-5.266 12.934-10.845 31.691-21.156 41.365-28.421 26.664-79.992 13.514-87.251-26.32-4.549-19.469 4.975-32.551 12.206-49.608 11.62-27.408 18.161-57.887 9.564-87.235-3.651-12.466-2.861-16.881-15.635-22.567 4.69 41.457-6.428 82.218-21.795 120.418-3.145 7.819-7.565 20.152-12.589 26.485-8.111 10.226-21.669 17.311-34.643 18.632a52.66 52.66 0 0 1-39.145-11.642 46.17 46.17 0 0 1-16.997-32.288c-1.645-18.986 5.629-29.891 13.536-46.421 16.678-34.87 22.905-64.513 2.327-99.489-7.439.908-14.999 1.751-22.499 1.902 3.342 62.76-7.108 111.448-28.928 169.963-3.603 9.664-10.963 29.518-17.563 36.916-9.397 10.536-24.22 16.85-38.31 17.43a53.82 53.82 0 0 1-38.69-14.088 51.47 51.47 0 0 1-16.698-36.65c-.362-11.737 2.834-19.955 7.251-30.595 13.388-32.252 25.183-68.589 26.561-103.734a44 44 0 0 1-.095-1.804c-.049-1.736.042-1.631-.805-3.072-8.858 45.774-30.327 90.42-48.788 133.081-3.805 8.793-10.116 15.435-18.227 20.433-35.922 22.131-85.341-5.122-80.598-48.348 1.86-16.956 14.847-39.999 21.453-56.285a470.7 470.7 0 0 0 33.245-131.628c.455-4.858 1.74-20.091 1.001-24.491-1.107-6.594-7.516-16.906-9.796-25.133-11.899-42.94-4.098-79.315 15.659-117.536-2.634.927-5.596 1.836-8.282 2.649-14.764 4.465-29.963 11.808-45.262 13.86a88.34 88.34 0 0 1-66.789-17.917 81.7 81.7 0 0 1-31.345-55.018c-4.682-38.846 13.092-66.538 35.445-95.155-38-.339-73.587-15.69-92.871-49.899-10.139-17.987-13.522-41.879-7.763-61.79a47 47 0 0 0 6.2 12.824c18.174 26.651 53.26 32.532 79.8 14.446l-.722-1.733c-22.508 1.154-40.126-2.762-57.469-18.16-29.361-26.07-28.728-76.298.314-102.285-2.697 9.93-2.378 20.248 2.884 29.322a26.33 26.33 0 0 0 16.661 12.483c29.619 7.172 53.779-27.889 71.467-45.623 10.083-10.109 31.822-28.713 45.075-32.895.655-6.445 1.076-9.482 4.044-15.296-8.802-8.567-8.815-17.095-3.958-27.836-7.351-8.088-9.048-16.612-3.109-26.182" />
  <path fill="#fffaf6" d="M509.322 460.895c-.06 2.882-2.499 10.923-3.335 14.124-12.115 46.382-2.115 100.454 48.497 118.479 47.898 17.059 101.886-13.373 105.728-66.646a152.7 152.7 0 0 1 36.815 6.251c34.681 10.177 59.26 27.362 76.823 59.531-1.894-1.001-3.734-1.943-5.705-2.794a100.18 100.18 0 0 0-76.205-.917c-36.28 14.41-59.544 48.719-65.294 86.596-3.732 24.581.679 46.86 9.837 69.534-28.05 7.727-62.192 15.977-91.237 16.423-.328-5.924-3.681-43.386-5.493-47.325-1.469-.383-.769-.445-2.164.237-1.499 2.565-.335 6.733.029 9.668 3.35 26.995 5.277 53.333 4.373 80.569-1.27 27.059-5.242 52.099-12.597 78.182-2.343 8.307-4.776 18.033-8.222 25.927-33.139 21.777-73.775 1.506-93.567-28.612 19.765-60.484 23.803-119.724-4.457-178.661-1.359-2.833-4.263-12.314-7.943-11.18-.953 1.649-.927 2.239.102 4.194 10.093 19.167 16.752 37.503 20.532 58.856-44.124-10.997-88.807-50.625-97.875-96.348-1.352-6.817.493-17.001 2.861-23.443 18.973-51.472 77.929-69.995 115.191-105.297 15.412-14.6 27.497-28.879 38.805-46.826 4.311-6.842 9.696-13.976 14.501-20.522" />
  <path fill="#fffaf6" d="m551.129 173.03.276.083c1.284 1.318 3.314 9.671 4.275 13.191 10.332 37.857 6.517 81.336-23.333 109.621-2.347 2.225-18.794 14.522-19.558 15.959.332 1.664-.115 1.112 1.028 1.953 3.384-.209 9.448-5.106 12.465-7.25 2.5 7.206 3.926 15.502 5.218 23.05 5.98 34.939 1.623 73.724-12.896 106.189-19.674 43.414-56.61 74.524-100.55 91.642-20.979 8.172-40.294 11.046-61.469 17.196a694 694 0 0 0-29.128 9.457c-11.971 4.108-22.168 8.343-34.95 9.134-15.564.963-28.197-1.646-42.244-7.978q-.624-.296-1.241-.609c-20.833-10.635-33.817-25.153-41.62-47.163-13.04-36.782 6.342-58.001 40.755-68.848 8.86-2.792 18.435-4.568 27.155-7.974a85.3 85.3 0 0 0 24.533-14.851c8.077-7.092 12.739-13.864 18.606-22.715 10.026-15.123 15.845-34.125 31.429-44.187 23.432-15.13 46.22-12.007 71.33-20.264 19.185-6.308 36.041-21.051 38.907-41.746 1.002-7.261.364-14.412 1.695-21.683 8.797-48.087 45.071-77.613 89.317-92.207" />
  <path fill="#3a2a3f" d="M531.219 205.923c5.237 5.812 4.601 29.88 3.407 37.606-3.876 25.101-23.255 45.204-43.313 59.209-6.283-15.649-5.576-38.892 2-53.886 6.845-13.547 25.335-34.177 37.906-42.929" />
  <path fill="#ffb6d5" d="M434.705 440.842c14.615-2.582 28.542 7.218 31.047 21.846s-7.368 28.503-22.009 30.931c-14.533 2.41-28.283-7.373-30.769-21.893s7.225-28.321 21.731-30.884" />
  <!-- left open kawaii eye (sits on the white forehead, above the muzzle) -->
  <g>
    <ellipse cx="358" cy="395" rx="14" ry="18" fill="#3a2a3f" />
    <ellipse cx="362" cy="388" rx="6" ry="8" fill="#fffaf6" />
    <circle cx="352" cy="403" r="3" fill="#fffaf6" />
  </g>
  <!-- right open kawaii eye (matches left, paired above the mouth) -->
  <g>
    <ellipse cx="408" cy="395" rx="14" ry="18" fill="#3a2a3f" />
    <ellipse cx="412" cy="388" rx="6" ry="8" fill="#fffaf6" />
    <circle cx="402" cy="403" r="3" fill="#fffaf6" />
  </g>
  <!-- happy kawaii smile (sits on the muzzle, left of the cheek) -->
  <path d="M 322 490 Q 345 512 368 490" stroke="#3a2a3f" stroke-width="6" fill="none" stroke-linecap="round" stroke-linejoin="round" />
  <path fill="#ff7eb8" d="M385.371 198.719c4.615-.538 13.742-.178 18.566.032 26.666 1.157 49.285 8.042 71.798 22.454-9.82 16.663-12.428 22.814-17.495 41.326-58.548-.54-88.173 26.994-121.243 71.158-38.176 50.985-96.785 79.72-157.537 46.253-29.776-17.875-44.622-45.175-42.393-79.881 8.942 12.204 16.505 19.486 31.253 24.788a59.4 59.4 0 0 0 33.401 2.005c33.328-7.525 46.143-36.735 63.066-62.51 12.119-18.457 30.315-37.391 50.414-46.826.815 7.037.636 16.781 6.948 21.095 18.955 12.745 47.759 6.234 60.166-12.844 8.673-13.336-1.181-16.967-2.311-26.015l.574-.736c1.641-.185 3.15-.232 4.793-.299" />
  <path fill="#ff7eb8" d="M774.945 542.222c17.111-.723 33.337 6.133 46.577 16.366 30.537 23.601 40.931 59.439 30.214 96.163-5.867 20.108-14.511 34.388-11.735 56.601a61.53 61.53 0 0 0 23.94 41.598 62.86 62.86 0 0 0 46.762 12.672c19.342-2.541 30.508-12.3 41.939-27.017-3.275 19.873-12.636 36.507-26.987 50.526-48.088 45.16-126.408 28.075-147.87-35.391-13.734-41.613 13.77-79.144 10.561-121.099-2.813-36.786-17.13-57.65-43.648-81.216 9.294-6.385 19.075-8.538 30.247-9.203" />
  <path fill="#ff7eb8" d="M801.887 490.702c19.996-2.365 43.979 3.791 61.421 13.545a105.97 105.97 0 0 1 42.233 44.234 112.1 112.1 0 0 1 12.045 44.814 138 138 0 0 1-3.947 43.304c-5.597 22.74-19.257 47.202-12.415 70.811 6.417 22.141 27.669 32.725 49.54 26.28-17.186 27.632-46.81 36.082-76.076 21.708-8.833-4.613-15.655-10.909-21.152-19.085-22.117-31.171-1.951-60.139 4.795-92.2 9.814-46.641-22.381-95.906-69.844-104.635a62.7 62.7 0 0 0-47.073 9.792c-5.696-3.432-11.276-6.889-17.186-9.942a106 106 0 0 1 9.158-13.375c17.323-21.371 41.531-32.36 68.501-35.251" />
  <path fill="#ff7eb8" d="M549.215 281.244c4.09 2.541 15.883 20.847 18.997 26.34a137.63 137.63 0 0 1 15.209 95.501c-2.13 10.041-5.504 18.613-8.263 28.256-6.04 21.353-7.641 42.757 1.949 63.353 13.676 29.373 45.714 50.662 77.661 35.432-5.15 12.36-12.056 19.574-23.211 26.813-22.257 11.813-45.211 10.718-67.087-1.678-41.886-23.736-47.478-74.531-39.642-117.543 3.426-18.803 10.973-37.13 12.376-56.458 2.404-29.374.054-49.908-7.611-77.771 8.138-6.294 13.839-13.768 19.622-22.245" />
  <path fill="#ffd23f" d="M368.101 185.842c3.024 5.132 11.863 23.708 14.1 29.319-2.091 9.934-9.66 17.854-18.687 22.143a43.54 43.54 0 0 1-33.455 1.48c-4.15-1.892-5.581-2.952-8.605-6.127-1.744-7.232-3.396-22.052-4.555-29.959 19.906 9.24 40.681 2.376 51.202-16.856" />
  <path fill="#ffd23f" d="M354.108 158.769c3.322 1.348 8.187 6.928 9.658 10.143 5.784 12.638-4.223 26.384-15.922 31.181-9.224 3.783-17.575 4.066-26.929.379-11.624-6.653-14.161-15.966-9.459-28.069 17.733 6.279 32.347 2.69 42.652-13.634" />
  <path fill="#ffd23f" d="M342.508 132.016c4.383 3.226 9.439 7.473 9.914 13.237 1.759 21.349-21.473 31.765-38.648 23.379-11.031-7.156-12.337-15.644-7.086-27.336 14.022 7.509 26.529 2.693 35.82-9.28" />
  <path fill="#ffd23f" d="M329.392 107.384c23.949 12.837 5.424 39.107-17.527 32.812-3.696-1.832-6.244-2.736-8.577-6.323-4.247-6.529-3.629-13.167-.577-19.809 10.515 3.621 19.05 1.263 26.681-6.68" />
  <path fill="#ffd23f" d="M317.113 82.522c2.331 1.36 3.731 1.083 6.055 3.31a16.22 16.22 0 0 1 5.026 11.42c.115 10.559-10.889 14.967-19.925 14.706-11.155-3.595-13.486-13.01-9.274-23.178l.377-.93c8.341 1.7 11.924 1.499 17.741-5.328" />
  <path fill="#ffd23f" d="M309.531 64.483c10.238 8.422 6.519 20.986-6.562 20.333-6.254-2.98-8.402-6.95-6.537-13.82.676-2.488.818-1.876 3.57-1.836 4.078.059 6.717-1.967 9.529-4.677" />
  <path fill="#ffd23f" d="M295.547 42.381c1.648 1.536 8.805 12.624 10.062 15.34.918 1.983.417 3.702-.292 5.594-1.509.705-8.379 2.499-8.587.19-.599-6.67-1.168-14.416-1.183-21.124" />

  <!-- chest marking (small oval detail on the body) -->
  <path fill="#3a2a3f" d="M479.408 648.805c14.378-2.447 28.01 7.244 30.422 21.628 2.412 14.383-7.313 27.992-21.702 30.369-14.34 2.368-27.891-7.316-30.295-21.65-2.403-14.334 7.248-27.908 21.575-30.347" />
</svg>
